<?xml version="1.0" encoding="UTF-8"?>
<svg xmlns="http://www.w3.org/2000/svg" id="Layer_1" data-name="Layer 1" viewBox="0 0 24 24">
  <path d="m4,7h3c1.103,0,2-.897,2-2v-3c0-1.103-.897-2-2-2h-3c-1.103,0-2,.897-2,2v3c0,1.103.897,2,2,2Zm-1-5c0-.552.448-1,1-1h3c.552,0,1,.448,1,1v3c0,.552-.448,1-1,1h-3c-.552,0-1-.448-1-1v-3Zm6,12v-3c0-1.103-.897-2-2-2h-3c-1.103,0-2,.897-2,2v3c0,1.103.897,2,2,2h3c1.103,0,2-.897,2-2Zm-6,0v-3c0-.552.448-1,1-1h3c.552,0,1,.448,1,1v3c0,.552-.448,1-1,1h-3c-.552,0-1-.448-1-1Zm10-7h3c1.103,0,2-.897,2-2v-3c0-1.103-.897-2-2-2h-3c-1.103,0-2,.897-2,2v3c0,1.103.897,2,2,2Zm-1-5c0-.552.448-1,1-1h3c.552,0,1,.448,1,1v3c0,.552-.448,1-1,1h-3c-.552,0-1-.448-1-1v-3Zm1.5,3h2c.276,0,.5-.224.5-.5v-2c0-.276-.224-.5-.5-.5h-2c-.276,0-.5.224-.5.5v2c0,.276.224.5.5.5Zm.5-2h1v1h-1v-1Zm10,20.5c0,.276-.224.5-.5.5s-.5-.224-.5-.5c0-1.637-.994-3.026-2.596-3.627l-5.08-1.905c-.195-.073-.324-.26-.324-.468v-5.893c0-.789-.535-1.471-1.244-1.587-.45-.07-.886.046-1.227.336-.337.286-.529.703-.529,1.144v8.424c0,.421-.235.796-.615.979-.379.18-.819.132-1.146-.13,0,0-1.716-1.367-1.719-1.371-.606-.562-1.553-.529-2.115.073-.565.604-.534,1.557.064,2.118l1.633,1.551c.325.309.107.856-.342.856-.127,0-.249-.048-.341-.135l-1.64-1.548c-1-.937-1.048-2.518-.106-3.524.928-.994,2.482-1.054,3.49-.149.003.002,1.698,1.347,1.698,1.347l.138-.066v-8.424c0-.734.321-1.429.881-1.905.561-.476,1.307-.68,2.035-.561,1.188.193,2.084,1.3,2.084,2.573v5.546l4.756,1.784c2.001.75,3.244,2.498,3.244,4.562Z"/>
</svg>
